<svg xmlns="http://www.w3.org/2000/svg" version="1.1" xmlns:xlink="http://www.w3.org/1999/xlink" xmlns:svgjs="http://svgjs.dev/svgjs" width="1000" height="257" viewBox="0 0 1000 257"><g transform="matrix(1,0,0,1,-0.6060482565752636,-0.11095195069080432)"><svg viewBox="0 0 396 102" data-background-color="#ffffff" preserveAspectRatio="xMidYMid meet" height="257" width="1000" xmlns="http://www.w3.org/2000/svg" xmlns:xlink="http://www.w3.org/1999/xlink"><g id="tight-bounds" transform="matrix(1,0,0,1,0.2399952624286925,0.04403581206287299)"><svg viewBox="0 0 395.52 101.91192878338279" height="101.91192878338279" width="395.52"><g><svg viewBox="0 0 395.52 101.91192878338279" height="101.91192878338279" width="395.52"><g><svg viewBox="0 0 395.52 101.91192878338279" height="101.91192878338279" width="395.52"><g id="textblocktransform"><svg viewBox="0 0 395.52 101.91192878338279" height="101.91192878338279" width="395.52" id="textblock"><g><svg viewBox="0 0 395.52 101.91192878338279" height="101.91192878338279" width="395.52"><g transform="matrix(1,0,0,1,0,0)"><svg width="395.52" viewBox="5.440000057220459 -38.15999984741211 148.08999633789062 38.15999984741211" height="101.91192878338279" data-palette-color="#0080ff"><g class="undefined-text-0" data-fill-palette-color="primary" id="text-0"><path d="M5.44 0L5.44-38.16 13.18-38.16 27.05-24.24 40.92-38.16 48.66-38.16 48.66 0 40.92 0 40.92-27.44 27.05-14.09 13.18-27.44 13.18 0 5.44 0ZM54.61 0L72.53-38.16 80.73-38.16 99.19 0 91.06 0 88.01-6.42 65.72-6.42 62.77 0 54.61 0ZM68.67-12.79L84.96-12.79 76.71-30.13 68.67-12.79ZM105.12 0L105.12-38.16 112.86-38.16 112.86-18.41 133-38.16 142.91-38.16 124.12-19.95 142.91 0 132.61 0 118.55-14.55 112.86-9.06 112.86 0 105.12 0ZM145.74 0L145.74-38.16 153.53-38.16 153.53 0 145.74 0Z" fill="#0080ff" data-fill-palette-color="primary"></path></g></svg></g></svg></g></svg></g></svg></g><g></g></svg></g><defs></defs></svg><rect width="395.52" height="101.91192878338279" fill="none" stroke="none" visibility="hidden"></rect></g></svg></g></svg>